<?xml version="1.0" encoding="UTF-8" standalone="no"?> <!-- Created with Vectornator for iOS (http://vectornator.io/) --><!DOCTYPE svg PUBLIC "-//W3C//DTD SVG 1.1//EN" "http://www.w3.org/Graphics/SVG/1.1/DTD/svg11.dtd">
<svg height="100%" style="fill-rule:evenodd;clip-rule:evenodd;stroke-linecap:round;stroke-linejoin:round;" xmlns:xlink="http://www.w3.org/1999/xlink" xmlns="http://www.w3.org/2000/svg" xml:space="preserve" width="100%" xmlns:vectornator="http://vectornator.io" version="1.1" viewBox="0 0 1024 1024">
<metadata>
<vectornator:setting key="DisplayWhiteBackground" value="0"/>
<vectornator:setting key="RulersVisible" value="1"/>
<vectornator:setting key="Units" value="Pixels"/>
<vectornator:setting key="New" value="1"/>
<vectornator:setting key="DynamicGuides" value="0"/>
<vectornator:setting key="GuidesVisible" value="1"/>
<vectornator:setting key="SnapToPoints" value="0"/>
<vectornator:setting key="SnapToGrid" value="0"/>
<vectornator:setting key="SnapToGuides" value="1"/>
<vectornator:setting key="DimensionsVisible" value="1"/>
<vectornator:setting key="SnapToEdges" value="0"/>
</metadata>
<defs/>
<g id="レイヤー 2" vectornator:layerName="レイヤー 2">
<path stroke="#99a115" stroke-width="52.2513" d="M870.845+809.622L799.39+886.635" fill="none" stroke-linecap="round" opacity="1" stroke-linejoin="round"/>
<path stroke="#99a115" stroke-width="52.2513" d="M885.93+898.544L814.475+975.557" fill="none" stroke-linecap="round" opacity="1" stroke-linejoin="round"/>
<path stroke="#99a115" stroke-width="126.998" d="M833.747+953.503L719.201+840.586" fill="none" stroke-linecap="round" opacity="1" stroke-linejoin="round"/>
<path stroke="#99a115" stroke-width="126.998" d="M76.415+542.994C76.415+332.913+246.719+162.609+456.8+162.609C666.881+162.609+837.186+332.913+837.186+542.994C837.186+753.075+666.881+923.379+456.8+923.379C246.719+923.379+76.415+753.075+76.415+542.994Z" fill="none" stroke-linecap="round" opacity="1" stroke-linejoin="round"/>
</g>
<g id="レイヤー 1" vectornator:layerName="レイヤー 1">
<g opacity="1">
<path d="M809.455+430.351C809.455+496.311+782.085+548.501+727.345+586.921C672.605+625.341+597.975+644.551+503.455+644.551C489.855+644.551+477.445+643.871+466.225+642.511C455.005+641.151+443.615+639.111+432.055+636.391L432.055+787.351C432.055+814.551+438.515+834.611+451.435+847.531C464.355+860.451+490.535+868.951+529.975+873.031C532.015+873.031+533.885+875.921+535.585+881.701C537.285+887.481+538.135+892.071+538.135+895.471C538.135+899.551+537.285+904.311+535.585+909.751C533.885+915.191+532.015+917.911+529.975+917.911C496.655+917.911+462.995+917.061+428.995+915.361C394.995+913.661+362.355+912.811+331.075+912.811C299.795+912.811+267.325+913.661+233.665+915.361C200.005+917.061+166.515+917.911+133.195+917.911C131.155+917.911+129.285+915.361+127.585+910.261C125.885+905.161+125.035+900.231+125.035+895.471C125.035+892.071+125.885+887.651+127.585+882.211C129.285+876.771+131.155+873.711+133.195+873.031C172.635+868.271+198.645+859.771+211.225+847.531C223.805+835.291+230.095+815.231+230.095+787.351L230.095+323.251C230.095+300.811+223.465+284.661+210.205+274.801C196.945+264.941+171.275+257.971+133.195+253.891C131.155+253.211+129.285+250.151+127.585+244.711C125.885+239.271+125.035+234.851+125.035+231.451C125.035+226.691+125.885+221.761+127.585+216.661C129.285+211.561+131.155+209.011+133.195+209.011C166.515+209.011+201.365+209.861+237.745+211.561C274.125+213.261+307.955+214.111+339.235+214.111C370.515+214.111+397.715+213.261+420.835+211.561C443.955+209.861+472.175+209.011+505.495+209.011C612.935+209.011+690.455+228.731+738.055+268.171C785.655+307.611+809.455+361.671+809.455+430.351ZM599.335+416.071C599.335+356.911+590.155+315.941+571.795+293.161C553.435+270.381+527.255+258.991+493.255+258.991C471.495+258.991+455.855+264.091+446.335+274.291C436.815+284.491+432.055+300.811+432.055+323.251L432.055+557.851C432.055+573.491+439.025+583.521+452.965+587.941C466.905+592.361+476.595+594.571+482.035+594.571C522.155+594.571+551.735+579.611+570.775+549.691C589.815+519.771+599.335+475.231+599.335+416.071Z" opacity="1" fill="#ffbf06"/>
<path d="M336.175+1575.81C336.175+1600.97+327.165+1622.73+309.145+1641.09C291.125+1659.45+269.195+1668.63+243.355+1668.63C218.195+1668.63+196.435+1659.45+178.075+1641.09C159.715+1622.73+150.535+1600.97+150.535+1575.81C150.535+1549.97+159.715+1528.04+178.075+1510.02C196.435+1492+218.195+1482.99+243.355+1482.99C269.195+1482.99+291.125+1492+309.145+1510.02C327.165+1528.04+336.175+1549.97+336.175+1575.81ZM336.175+1861.41C336.175+1886.57+327.165+1908.33+309.145+1926.69C291.125+1945.05+269.195+1954.23+243.355+1954.23C218.195+1954.23+196.435+1945.05+178.075+1926.69C159.715+1908.33+150.535+1886.57+150.535+1861.41C150.535+1836.25+159.715+1814.49+178.075+1796.13C196.435+1777.77+218.195+1768.59+243.355+1768.59C269.195+1768.59+291.125+1777.77+309.145+1796.13C327.165+1814.49+336.175+1836.25+336.175+1861.41Z" opacity="1" fill="#ffbf06"/>
</g>
<g opacity="1">
<path d="M801.818+430.574C801.818+495.24+774.984+546.407+721.318+584.074C667.651+621.74+594.484+640.574+501.818+640.574C488.484+640.574+476.318+639.907+465.318+638.574C454.318+637.24+443.151+635.24+431.818+632.574L431.818+780.574C431.818+807.24+438.151+826.907+450.818+839.574C463.484+852.24+489.151+860.574+527.818+864.574C529.818+864.574+531.651+867.407+533.318+873.074C534.984+878.74+535.818+883.24+535.818+886.574C535.818+890.574+534.984+895.24+533.318+900.574C531.651+905.907+529.818+908.574+527.818+908.574C495.151+908.574+462.151+907.74+428.818+906.074C395.484+904.407+363.484+903.574+332.818+903.574C302.151+903.574+270.318+904.407+237.318+906.074C204.318+907.74+171.484+908.574+138.818+908.574C136.818+908.574+134.984+906.074+133.318+901.074C131.651+896.074+130.818+891.24+130.818+886.574C130.818+883.24+131.651+878.907+133.318+873.574C134.984+868.24+136.818+865.24+138.818+864.574C177.484+859.907+202.984+851.574+215.318+839.574C227.651+827.574+233.818+807.907+233.818+780.574L233.818+325.574C233.818+303.574+227.318+287.74+214.318+278.074C201.318+268.407+176.151+261.574+138.818+257.574C136.818+256.907+134.984+253.907+133.318+248.574C131.651+243.24+130.818+238.907+130.818+235.574C130.818+230.907+131.651+226.074+133.318+221.074C134.984+216.074+136.818+213.574+138.818+213.574C171.484+213.574+205.651+214.407+241.318+216.074C276.984+217.74+310.151+218.574+340.818+218.574C371.484+218.574+398.151+217.74+420.818+216.074C443.484+214.407+471.151+213.574+503.818+213.574C609.151+213.574+685.151+232.907+731.818+271.574C778.484+310.24+801.818+363.24+801.818+430.574ZM595.818+416.574C595.818+358.574+586.818+318.407+568.818+296.074C550.818+273.74+525.151+262.574+491.818+262.574C470.484+262.574+455.151+267.574+445.818+277.574C436.484+287.574+431.818+303.574+431.818+325.574L431.818+555.574C431.818+570.907+438.651+580.74+452.318+585.074C465.984+589.407+475.484+591.574+480.818+591.574C520.151+591.574+549.151+576.907+567.818+547.574C586.484+518.24+595.818+474.574+595.818+416.574Z" opacity="1" fill="#cca918"/>
<path d="M337.818+1553.57C337.818+1578.24+328.984+1599.57+311.318+1617.57C293.651+1635.57+272.151+1644.57+246.818+1644.57C222.151+1644.57+200.818+1635.57+182.818+1617.57C164.818+1599.57+155.818+1578.24+155.818+1553.57C155.818+1528.24+164.818+1506.74+182.818+1489.07C200.818+1471.41+222.151+1462.57+246.818+1462.57C272.151+1462.57+293.651+1471.41+311.318+1489.07C328.984+1506.74+337.818+1528.24+337.818+1553.57ZM337.818+1833.57C337.818+1858.24+328.984+1879.57+311.318+1897.57C293.651+1915.57+272.151+1924.57+246.818+1924.57C222.151+1924.57+200.818+1915.57+182.818+1897.57C164.818+1879.57+155.818+1858.24+155.818+1833.57C155.818+1808.91+164.818+1787.57+182.818+1769.57C200.818+1751.57+222.151+1742.57+246.818+1742.57C272.151+1742.57+293.651+1751.57+311.318+1769.57C328.984+1787.57+337.818+1808.91+337.818+1833.57Z" opacity="1" fill="#cca918"/>
</g>
</g>
</svg>
